<svg width="40" height="40" viewBox="0 0 40 40" fill="none" xmlns="http://www.w3.org/2000/svg">
<g filter="url(#filter0_i_1819_21)">
<path d="M20 40C31.0457 40 40 31.0457 40 20C40 8.9543 31.0457 0 20 0C8.95433 0 0 8.9543 0 20C0 31.0457 8.95433 40 20 40Z" fill="#193145"/>
</g>
<path d="M20 0.5C30.7696 0.5 39.5 9.23044 39.5 20C39.5 30.7696 30.7696 39.5 20 39.5C9.23046 39.5 0.5 30.7696 0.5 20C0.5 9.23045 9.23046 0.500011 20 0.5Z" stroke="url(#paint0_linear_1819_21)"/>
<mask id="mask0_1819_21" style="mask-type:alpha" maskUnits="userSpaceOnUse" x="0" y="0" width="40" height="40">
<path d="M20 0.5C30.7696 0.5 39.5 9.23044 39.5 20C39.5 30.7696 30.7696 39.5 20 39.5C9.23046 39.5 0.5 30.7696 0.5 20C0.5 9.23045 9.23046 0.500011 20 0.5Z" fill="#193145" stroke="url(#paint1_linear_1819_21)"/>
</mask>
<g mask="url(#mask0_1819_21)">
<g filter="url(#filter1_f_1819_21)">
<path d="M50 46C50 51.5228 35.897 56 18.5 56C1.10303 56 -13 51.5228 -13 46C-13 42.3977 -7.00023 39.2404 2 37.48C6.7986 36.5414 13.4501 24 19.5 24C24.9306 24 29.0401 36.4363 33.5 37.2044C43.3274 38.897 50 42.2011 50 46Z" fill="#00DCFF"/>
</g>
</g>
<defs>
<filter id="filter0_i_1819_21" x="0" y="0" width="40" height="41" filterUnits="userSpaceOnUse" color-interpolation-filters="sRGB">
<feFlood flood-opacity="0" result="BackgroundImageFix"/>
<feBlend mode="normal" in="SourceGraphic" in2="BackgroundImageFix" result="shape"/>
<feColorMatrix in="SourceAlpha" type="matrix" values="0 0 0 0 0 0 0 0 0 0 0 0 0 0 0 0 0 0 127 0" result="hardAlpha"/>
<feOffset dy="1"/>
<feGaussianBlur stdDeviation="6.9"/>
<feComposite in2="hardAlpha" operator="arithmetic" k2="-1" k3="1"/>
<feColorMatrix type="matrix" values="0 0 0 0 0.0470588 0 0 0 0 0.580392 0 0 0 0 0.886275 0 0 0 0.65 0"/>
<feBlend mode="normal" in2="shape" result="effect1_innerShadow_1819_21"/>
</filter>
<filter id="filter1_f_1819_21" x="-23.8" y="13.2" width="84.6" height="53.6" filterUnits="userSpaceOnUse" color-interpolation-filters="sRGB">
<feFlood flood-opacity="0" result="BackgroundImageFix"/>
<feBlend mode="normal" in="SourceGraphic" in2="BackgroundImageFix" result="shape"/>
<feGaussianBlur stdDeviation="5.4" result="effect1_foregroundBlur_1819_21"/>
</filter>
<linearGradient id="paint0_linear_1819_21" x1="20" y1="0" x2="19.5" y2="26.5" gradientUnits="userSpaceOnUse">
<stop stop-color="#24FFF8"/>
<stop offset="1" stop-color="#47A5FF"/>
</linearGradient>
<linearGradient id="paint1_linear_1819_21" x1="20" y1="-6.66361e-07" x2="19.5" y2="26.5" gradientUnits="userSpaceOnUse">
<stop stop-color="#24FFF8"/>
<stop offset="1" stop-color="#47A5FF"/>
</linearGradient>
</defs>
</svg>
